<svg version="1.1" xmlns="http://www.w3.org/2000/svg" viewBox="0 0 371.65175015032287 706.854271475625" width="371.65175015032287" height="706.854271475625">
  <!-- svg-source:excalidraw -->
  
  <defs>
    <style>
      @font-face {
        font-family: "Virgil";
        src: url("https://excalidraw.com/Virgil.woff2");
      }
      @font-face {
        font-family: "Cascadia";
        src: url("https://excalidraw.com/Cascadia.woff2");
      }
    </style>
  </defs>
  <rect x="0" y="0" width="371.65175015032287" height="706.854271475625" fill="#ffffff"></rect><g stroke-linecap="round"><g transform="translate(311.60853725969787 621.4476945698348) rotate(0 -18.76267759911252 -131.62581189106265)"><path d="M1.02 -20.89 C0.77 -51.96, 4.66 -169.94, -1.99 -206.85 C-8.65 -243.76, -32.62 -236.43, -38.91 -242.36 M0.09 -21.65 C-0.19 -52.03, 4.09 -168.87, -2.5 -205.53 C-9.09 -242.19, -33.24 -235.54, -39.44 -241.6" stroke="#000000" stroke-width="1" fill="none"></path></g><g transform="translate(311.60853725969787 621.4476945698348) rotate(0 -18.76267759911252 -131.62581189106265)"><path d="M-13.3 -19.9 C-10.66 -20.5, -7.62 -21.52, -0.36 -19.73 M-13.28 -20.21 C-10.35 -21.63, -5.53 -21.6, 1.48 -21" stroke="#000000" stroke-width="1" fill="none"></path></g><g transform="translate(311.60853725969787 621.4476945698348) rotate(0 -18.76267759911252 -131.62581189106265)"><path d="M16.7 -19.79 C11.65 -20.16, 7 -21.21, -0.36 -19.73 M16.72 -20.09 C11.84 -21.31, 8.86 -21.32, 1.48 -21" stroke="#000000" stroke-width="1" fill="none"></path></g><g transform="translate(311.60853725969787 621.4476945698348) rotate(0 -18.76267759911252 -131.62581189106265)"><path d="M-13.29 -239.99 C-21.36 -240.48, -28.91 -241.91, -41.27 -240.05 M-13.26 -240.4 C-21.13 -242.02, -26.47 -242.06, -38.82 -241.74" stroke="#000000" stroke-width="1" fill="none"></path></g><g transform="translate(311.60853725969787 621.4476945698348) rotate(0 -18.76267759911252 -131.62581189106265)"><path d="M-19.32 -223.81 C-25.99 -228.5, -31.98 -234.08, -41.27 -240.05 M-19.3 -224.22 C-25.57 -230.1, -29.34 -234.35, -38.82 -241.74" stroke="#000000" stroke-width="1" fill="none"></path></g></g><g stroke-linecap="round"><g transform="translate(232.20497280657287 374.6424865722656) rotate(0 -84.49687558047009 -11.689443401698952)"><path d="M1.14 -0.57 C-20.39 -0.1, -100.84 7.28, -129.3 3.07 C-157.77 -1.14, -162.88 -20.79, -169.65 -25.81 M0.28 1.75 C-21.37 1.85, -101.68 6.18, -130.09 1.26 C-158.49 -3.65, -163.56 -23.15, -170.13 -27.73" stroke="#000000" stroke-width="1" fill="none"></path></g><g transform="translate(232.20497280657287 374.6424865722656) rotate(0 -84.49687558047009 -11.689443401698952)"><path d="M-149.45 -14.75 C-153.76 -17.76, -159.67 -21.78, -170.86 -27.43 M-148.44 -15.93 C-153.52 -18.8, -159.13 -21.33, -170.14 -28.24" stroke="#000000" stroke-width="1" fill="none"></path></g><g transform="translate(232.20497280657287 374.6424865722656) rotate(0 -84.49687558047009 -11.689443401698952)"><path d="M-162.52 -3.76 C-163.08 -10.07, -165.21 -17.27, -170.86 -27.43 M-161.51 -4.95 C-163.63 -10.35, -166.24 -15.4, -170.14 -28.24" stroke="#000000" stroke-width="1" fill="none"></path></g></g><g stroke-linecap="round"><g transform="translate(46.37276777448619 336.4866638183594) rotate(0 9.773949232570828 -122.1775510913925)"><path d="M-0.91 1.01 C-0.81 -33.43, -2.6 -165.66, 1.02 -206.39 C4.64 -247.12, 17.54 -237.26, 20.81 -243.36 M0.81 0.49 C0.79 -33.79, -2.74 -164.02, 0.53 -205 C3.79 -245.98, 16.97 -238.69, 20.42 -245.36" stroke="#000000" stroke-width="1" fill="none"></path></g><g transform="translate(46.37276777448619 336.4866638183594) rotate(0 9.773949232570828 -122.1775510913925)"><path d="M22.31 -244.9 L14.31 -233.11 L6.05 -242.41 L19.81 -246.1" stroke="none" stroke-width="0" fill="#000000" fill-rule="evenodd"></path><path d="M21.68 -244.29 C17.73 -240.09, 16.54 -235.84, 14.61 -232.12 M20.79 -244.65 C17.61 -241.07, 15.94 -237.42, 13.49 -232.04 M13.27 -232.47 C11.26 -234.53, 10.34 -236.22, 5.16 -242.71 M13.56 -232.27 C10.18 -235.23, 7.53 -239.77, 5.3 -242.18 M4.59 -241.47 C9.39 -242.51, 13.56 -243.61, 19.8 -245.19 M5.65 -242 C8.67 -242.88, 11 -242.91, 19.71 -244.74 M20.42 -245.36 C20.42 -245.36, 20.42 -245.36, 20.42 -245.36 M20.42 -245.36 C20.42 -245.36, 20.42 -245.36, 20.42 -245.36" stroke="#000000" stroke-width="1" fill="none"></path></g></g><g stroke-linecap="round"><g transform="translate(325.7920231661659 393.9384986929863) rotate(0 -33.708151861522026 -194.84113315155378)"><path d="M-19.16 -65.37 C-19.46 -101.53, -16.82 -240.13, -21.57 -282.94 C-26.31 -325.75, -43.28 -315.63, -47.61 -322.24 M-20.67 -65.83 C-21.08 -102.38, -17.91 -241.55, -22.58 -284.63 C-27.26 -327.71, -44.56 -318.19, -48.72 -324.32" stroke="#000000" stroke-width="1" fill="none"></path></g><g transform="translate(325.7920231661659 393.9384986929863) rotate(0 -33.708151861522026 -194.84113315155378)"><path d="M-48.11 -323.17 L-32.53 -322.98 L-38.31 -313.36 L-49.71 -323.48" stroke="none" stroke-width="0" fill="#000000" fill-rule="evenodd"></path><path d="M-47.34 -324.48 C-44.08 -325.11, -40.87 -324.98, -33.53 -324.8 M-49.29 -324.39 C-44.89 -323.97, -41.42 -324.91, -34.07 -324.88 M-34.76 -324.14 C-35.69 -320.42, -35.79 -317.37, -39.89 -311.65 M-33.14 -324.55 C-36.05 -319.3, -38.19 -315.74, -39.6 -312.81 M-40.18 -313.15 C-42.96 -314.23, -42.59 -317.31, -47.46 -324 M-38.99 -313.17 C-42.14 -316.11, -44.96 -318.59, -48.82 -324.13 M-48.72 -324.32 C-48.72 -324.32, -48.72 -324.32, -48.72 -324.32 M-48.72 -324.32 C-48.72 -324.32, -48.72 -324.32, -48.72 -324.32" stroke="#000000" stroke-width="1" fill="none"></path></g></g><g stroke-linecap="round"><g transform="translate(261.80256356568066 67.7512959694676) rotate(0 -93.85566915749575 -0.48175039835740563)"><path d="M-0.5 -0.48 C-32.1 -0.46, -157.24 -0.61, -188.74 -0.64 M1.43 -1.78 C-30.31 -1.5, -157.22 0.42, -189.14 0.81" stroke="#000000" stroke-width="1" fill="none"></path></g><g transform="translate(261.80256356568066 67.7512959694676) rotate(0 -93.85566915749575 -0.48175039835740563)"><path d="M-190.46 2.48 L-174.59 -4.16 L-175.12 5.18 L-189.38 1.04" stroke="none" stroke-width="0" fill="#000000" fill-rule="evenodd"></path><path d="M-189.74 2.1 C-184.3 -1.22, -179.3 -5.25, -176.63 -6.93 M-188.77 1.05 C-185.69 -1.07, -181.99 -2.59, -176.33 -5.12 M-174.44 -5.99 C-176.26 -1.53, -175.42 3.55, -174.41 6.56 M-175.49 -5.22 C-175.07 -0.83, -175.46 4.45, -175.16 6.76 M-175.18 8.13 C-180.45 4.27, -185.39 1.54, -188.13 0.71 M-175.15 6.49 C-178.91 5.37, -183.15 3.06, -189.3 0.11 M-189.14 0.81 C-189.14 0.81, -189.14 0.81, -189.14 0.81 M-189.14 0.81 C-189.14 0.81, -189.14 0.81, -189.14 0.81" stroke="#000000" stroke-width="1" fill="none"></path></g></g><g stroke-linecap="round"><g transform="translate(298.07460171282287 648.8945007324219) rotate(0 -118.28195069185927 -10.22479839468275)"><path d="M0.34 -0.66 C-30.21 -0.49, -143.72 4.38, -183.11 0.7 C-222.49 -2.99, -227.17 -18.76, -235.95 -22.78 M-0.95 1.61 C-31.59 2, -144.3 6.54, -183.63 2.19 C-222.95 -2.16, -228.23 -19.86, -236.9 -24.51" stroke="#000000" stroke-width="1" fill="none"></path></g><g transform="translate(298.07460171282287 648.8945007324219) rotate(0 -118.28195069185927 -10.22479839468275)"><path d="M-235.36 -24.35 L-224.43 -21 L-230.56 -11.46 L-238.56 -22.8" stroke="none" stroke-width="0" fill="#000000" fill-rule="evenodd"></path><path d="M-237.73 -23.5 C-232.5 -23.64, -226.42 -22.09, -221.89 -21.18 M-237.44 -24.67 C-232.66 -23.59, -226.6 -21.64, -222.99 -20.86 M-221.6 -20.94 C-224.75 -17.1, -226.77 -14.23, -231.14 -10.18 M-222.67 -20.49 C-224.57 -18.12, -226.43 -14.89, -230.44 -10.64 M-230.88 -12.01 C-232.05 -12.99, -232.29 -15.49, -236.33 -25.98 M-230.75 -10.39 C-231.74 -12.96, -233.74 -16.69, -236.84 -24.73 M-236.9 -24.51 C-236.9 -24.51, -236.9 -24.51, -236.9 -24.51 M-236.9 -24.51 C-236.9 -24.51, -236.9 -24.51, -236.9 -24.51" stroke="#000000" stroke-width="1" fill="none"></path></g></g><g stroke-linecap="round"><g transform="translate(51.40467983782287 612.4375305175781) rotate(0 -2.5191675098442943 -101.21513311978578)"><path d="M0 0.41 C-1.01 -33.58, -4.41 -169.03, -5.04 -202.84 M-1.46 -0.42 C-2.16 -33.76, -2.22 -168.26, -2.68 -201.76" stroke="#000000" stroke-width="1" fill="none"></path></g><g transform="translate(51.40467983782287 612.4375305175781) rotate(0 -2.5191675098442943 -101.21513311978578)"><path d="M0.18 -209.91 C1.88 -209.31, 3.81 -207.04, 4.88 -205.67 C5.94 -204.31, 6.98 -203.48, 6.58 -201.72 C6.19 -199.95, 4.02 -196.61, 2.5 -195.07 C0.97 -193.53, -0.73 -192.4, -2.56 -192.47 C-4.39 -192.54, -7.11 -194.19, -8.47 -195.5 C-9.82 -196.81, -10.56 -198.53, -10.7 -200.34 C-10.84 -202.15, -10.21 -204.84, -9.3 -206.38 C-8.39 -207.91, -6.85 -209, -5.25 -209.53 C-3.65 -210.07, -0.79 -209.67, 0.31 -209.58 C1.4 -209.49, 1.41 -209.09, 1.33 -208.99 M-1.18 -211.25 C0.34 -210.78, 2.23 -207.86, 3.17 -206.08 C4.1 -204.29, 4.39 -202.47, 4.43 -200.53 C4.46 -198.6, 4.47 -195.45, 3.38 -194.47 C2.28 -193.48, -0.55 -194.52, -2.14 -194.63 C-3.73 -194.74, -4.67 -194.14, -6.15 -195.14 C-7.62 -196.13, -10.19 -198.94, -11.01 -200.59 C-11.82 -202.23, -11.94 -203.35, -11.03 -204.98 C-10.12 -206.62, -7.52 -209.59, -5.54 -210.4 C-3.57 -211.2, -0.09 -210.09, 0.81 -209.83 C1.71 -209.57, 0.33 -209.03, -0.13 -208.84" stroke="none" stroke-width="0" fill="#000000"></path></g></g><g stroke-linecap="round"><g transform="translate(77.05203416425536 88.48468017578125) rotate(0 110.25175397742618 130.8737250575781)"><path d="M-1.06 0.01 C29.06 3.68, 152.84 -19.37, 180.65 22.05 C208.47 63.48, 159.01 211.01, 165.82 248.55 C172.64 286.09, 212.36 247.5, 221.57 247.29" stroke="#000000" stroke-width="1.5" fill="none" stroke-dasharray="8 9"></path></g><g transform="translate(77.05203416425536 88.48468017578125) rotate(0 110.25175397742618 130.8737250575781)"><path d="M202.07 268.75 C209.71 263.69, 213.31 255.63, 220.37 246.06" stroke="#000000" stroke-width="1.5" fill="none"></path></g><g transform="translate(77.05203416425536 88.48468017578125) rotate(0 110.25175397742618 130.8737250575781)"><path d="M193.31 251.36 C203.53 251.5, 209.71 248.55, 220.37 246.06" stroke="#000000" stroke-width="1.5" fill="none"></path></g></g><g stroke-linecap="round"><g transform="translate(55.98011929094787 73.30520629882801) rotate(0 111.13278509366512 311.80273257849217)"><path d="M-0.82 0.06 C-7.79 17.04, -36.7 7.22, -41.13 100.82 C-45.56 194.41, -54.21 478.15, -27.4 561.63 C-0.59 645.11, 71.85 591.42, 119.73 601.69 C167.6 611.96, 237.72 625.76, 259.83 623.27 C281.95 620.79, 253.8 593.06, 252.41 586.77" stroke="#000000" stroke-width="1.5" fill="none" stroke-dasharray="8 9"></path></g><g transform="translate(55.98011929094787 73.30520629882801) rotate(0 111.13278509366512 311.80273257849217)"><path d="M251.13 586.57 L263.16 595.23 L254.6 599.95 L251.97 584.84" stroke="none" stroke-width="0" fill="#000000" fill-rule="evenodd"></path><path d="M252.49 587.87 C255.75 590.83, 260.53 593.27, 265.11 594.91 M264.9 594.01 C261.84 596.55, 259.51 597.62, 253.3 600.4 M253.42 600.6 C255.26 597.32, 252.32 591.38, 251.75 586.8 M252.41 586.77 C252.41 586.77, 252.41 586.77, 252.41 586.77" stroke="#000000" stroke-width="1.5" fill="none"></path></g></g><g transform="translate(29.50734097063537 373.1555480957031) rotate(0 17.5 12.5)"><text x="0" y="18" font-family="Virgil, Segoe UI Emoji" font-size="20px" fill="#000000" text-anchor="start" style="white-space: pre;" direction="ltr">End</text></g><g transform="translate(285.00489956438537 604.4749450683594) rotate(0 29 12.5)"><text x="0" y="18" font-family="Virgil, Segoe UI Emoji" font-size="20px" fill="#000000" text-anchor="start" style="white-space: pre;" direction="ltr">Start</text></g><g transform="translate(152.68556362688537 10) rotate(0 12.5 23)"><text x="0" y="32" font-family="Virgil, Segoe UI Emoji" font-size="36px" fill="#000000" text-anchor="start" style="white-space: pre;" direction="ltr">A</text></g><g transform="translate(325.47023159563537 189.84237670898438) rotate(0 13.5 23)"><text x="0" y="32" font-family="Virgil, Segoe UI Emoji" font-size="36px" fill="#000000" text-anchor="start" style="white-space: pre;" direction="ltr">B</text></g><g transform="translate(337.65175015032287 487.9808044433594) rotate(0 12 23)"><text x="0" y="32" font-family="Virgil, Segoe UI Emoji" font-size="36px" fill="#000000" text-anchor="start" style="white-space: pre;" direction="ltr">C</text></g><g transform="translate(168.79249722063537 586.6661071777344) rotate(0 14.5 23)"><text x="0" y="32" font-family="Virgil, Segoe UI Emoji" font-size="36px" fill="#000000" text-anchor="start" style="white-space: pre;" direction="ltr">D</text></g><g transform="translate(68.45997768938537 485.8045349121094) rotate(0 13 23)"><text x="0" y="32" font-family="Virgil, Segoe UI Emoji" font-size="36px" fill="#000000" text-anchor="start" style="white-space: pre;" direction="ltr">E</text></g><g transform="translate(64.83009487688537 196.96652221679688) rotate(0 11 23)"><text x="0" y="32" font-family="Virgil, Segoe UI Emoji" font-size="36px" fill="#000000" text-anchor="start" style="white-space: pre;" direction="ltr">F</text></g></svg>